<?xml version="1.0" encoding="UTF-8" standalone="no"?>
<!-- Created with Inkscape (http://www.inkscape.org/) -->

<svg
   width="143.18628mm"
   height="144.1236mm"
   viewBox="0 0 143.18628 144.1236"
   version="1.1"
   id="svg1"
   xmlns="http://www.w3.org/2000/svg"
   xmlns:svg="http://www.w3.org/2000/svg">
  <defs
     id="defs1" />
  <g
     id="layer1"
     transform="translate(-32.683824,-74.287361)">
    <circle
       style="fill:#ff9200;fill-opacity:1;stroke-width:0.629525"
       id="path1"
       cx="104.27696"
       cy="146.81781"
       r="71.59314" />
    <circle
       style="fill:#a6ab54;fill-opacity:1;stroke-width:0.501795"
       id="path1-2"
       cx="104.93063"
       cy="146.47015"
       r="57.066998" />
    <circle
       style="fill:#ff0000;fill-opacity:1;stroke-width:0.427507"
       id="path1-8"
       cx="104.40147"
       cy="146.73456"
       r="48.618454" />
    <path
       style="fill:#000000;fill-opacity:1;stroke-width:0.264583"
       id="path2"
       d="m 145.91827,203.35498 c -0.88076,0.64853 -41.041,-39.0031 -42.13474,-38.99612 -1.09374,0.007 -40.744934,40.16765 -41.633889,39.53041 -0.888955,-0.63725 24.411789,-51.08493 24.06717,-52.12299 -0.344619,-1.03805 -50.792581,-26.33825 -50.461231,-27.38061 0.33135,-1.04237 56.128311,7.43088 57.009065,6.78235 0.880755,-0.64853 9.353395,-56.445582 10.447135,-56.452558 1.09374,-0.007 10.27742,55.677468 11.16637,56.314708 0.88896,0.63724 56.5733,-8.54704 56.91792,-7.50899 0.34462,1.03806 -49.77652,26.97969 -50.10787,28.02205 -0.33135,1.04237 25.61082,51.16323 24.73007,51.81175 z" />
  </g>
</svg>
